<svg viewBox="0 0 12 13" xmlns="http://www.w3.org/2000/svg"><path d="m5.66621022 12.959575-4.61749158-1.2818468-1.02898737-11.54129765h11.30679783l-1.0300784 11.53948975z" fill="#264de4"/><path d="m9.41459071 10.9411252.88027029-9.86102243h-4.62173081v10.89830133z" fill="#2965f1"/><g fill="#ebebeb"><path d="m2.37866244 5.36060419.12686616 1.41547714h3.16760159v-1.41547714z"/><path d="m2.12374564 2.49561108.12867407 1.41550834h3.42071048v-1.41550834z"/><path d="m5.67313019 9.03679255-.00620303.00165208-1.57644443-.4256718-.100776-1.12892175h-1.42093208l.19831019 2.22252667 2.89953061.80492995.00651474-.001808z"/></g><path d="m8.95852716 5.36060419.25554025-2.86499311h-3.54583109v1.41550834h1.99457285l-.12879875 1.44948477h-1.8657741v1.41547714h1.74302249l-.16430253 1.83578752-1.57871996.42610819v1.47264486l2.9018373-.80424415.02128979-.23914424.33262622-3.7265296z" fill="#fff"/></svg>